<svg class="diagram-root" style="background: #f5f6f6" xmlns="http://www.w3.org/2000/svg" xmlns:xlink="http://www.w3.org/1999/xlink"><style>.diagram-root { font-family: "Helvetica Neue", sans-serif; font-size: 12px; } .t { overflow: visible; } .t-bg { y: 40; fill: #fff;   } .th { fill: #005aa0;   } .tht { fill: #fff; font-size: 14px;  } .tf { fill: #323c46; overflow: visible; } .tf.pk { fill: #005aa0; font-weight: bold; } .tf.fk { font-weight: bold; } .ty { fill: #adb1b5; font-weight: normal; text-anchor: end; } .r { fill: transparent; stroke: #c3c3c3; stroke-width: 1; } .l { stroke: 1; } .i { fill: #c2c7ce; stroke: #c2c7ce; } .i.ix { fill: #afb3b6; stroke: #000; } .fa { fill: transparent; overflow: visible; } .fa .bg.hover { fill: #f7f7f7; } .c { cy: 12; r: 4; stroke: #d2d2dc; fill: #d2d2dc; } .hr { fill: transparent; stroke: #323c46; stroke-opacity: 0.035; stroke-width: 13; } .dc { stroke: #fa5a3c; fill: #fa5a3c; } .x { stroke: white; stroke-width: 1; } .hl .th { fill: #1b9bff; } .hl .tht {  } .fhl .bg { fill: #e7f4ff; } .fhls .bg {  } .r.hl { stroke: #1b9bff; } .dim { opacity: 0.25; }</style><g class="drawing-wrapper" transform="translate(11, 9) scale(1,1)"><g class="rs"><path d="M 606 364 m -1, 0 a 1,1 0 1,0 2,0 a 1,1 0 1,0 -2,0 M 606 364 m -0.5, 0 a 0.5,0.5 0 1,0 1,0 a 0.5,0.5 0 1,0 -1,0  M606 364 L606 364 594 364 M600 370 L600 370 600 358 M594 364 Q 498.94 364, 403.88 363 T 213.75 362 M 201.75 362 m -1, 0 a 1,1 0 1,0 2,0 a 1,1 0 1,0 -2,0 M 201.75 362 m -0.5, 0 a 0.5,0.5 0 1,0 1,0 a 0.5,0.5 0 1,0 -1,0  M201.75 362 L201.75 362 213.75 362 M207.75 368 L207.75 368 207.75 356" id="h1537058300" class="r"></path><path d="M 796.46 82 m -1, 0 a 1,1 0 1,0 2,0 a 1,1 0 1,0 -2,0 M 796.46 82 m -0.5, 0 a 0.5,0.5 0 1,0 1,0 a 0.5,0.5 0 1,0 -1,0  M796.46 82 L796.46 82 808.46 82 M802.46 88 L802.46 88 802.46 76 M808.46 82 C 858.46 82, 871.438 339, 786.83 339 M 774.83 339 m -1, 0 a 1,1 0 1,0 2,0 a 1,1 0 1,0 -2,0 M 774.83 339 m -0.5, 0 a 0.5,0.5 0 1,0 1,0 a 0.5,0.5 0 1,0 -1,0  M774.83 339 L774.83 339 786.83 339 M780.83 345 L780.83 345 780.83 333" id="h2286254435" class="r"></path><path d="M 629 107 m -1, 0 a 1,1 0 1,0 2,0 a 1,1 0 1,0 -2,0 M 629 107 m -0.5, 0 a 0.5,0.5 0 1,0 1,0 a 0.5,0.5 0 1,0 -1,0  M629 107 L629 107 617 107 M623 113 L623 113 623 101 M617 107 Q 510.37 107, 403.73 164 T 190.46 221 M 178.46 221 m -1, 0 a 1,1 0 1,0 2,0 a 1,1 0 1,0 -2,0 M 178.46 221 m -0.5, 0 a 0.5,0.5 0 1,0 1,0 a 0.5,0.5 0 1,0 -1,0  M178.46 221 L178.46 221 190.46 221 M184.46 227 L184.46 227 184.46 215" id="h1397587031" class="r"></path><path d="M 483.46 497 m -1, 0 a 1,1 0 1,0 2,0 a 1,1 0 1,0 -2,0 M 483.46 497 m -0.5, 0 a 0.5,0.5 0 1,0 1,0 a 0.5,0.5 0 1,0 -1,0  M483.46 497 L483.46 497 495.46 497 M489.46 503 L489.46 503 489.46 491 M495.46 497 Q 520.1 497, 544.73 418 T 594 339 M 606 339 m -1, 0 a 1,1 0 1,0 2,0 a 1,1 0 1,0 -2,0 M 606 339 m -0.5, 0 a 0.5,0.5 0 1,0 1,0 a 0.5,0.5 0 1,0 -1,0  M606 339 L606 339 594 339 M600 345 L600 345 600 333" id="h1139284389" class="r"></path><path d="M 316 522 m -1, 0 a 1,1 0 1,0 2,0 a 1,1 0 1,0 -2,0 M 316 522 m -0.5, 0 a 0.5,0.5 0 1,0 1,0 a 0.5,0.5 0 1,0 -1,0  M316 522 L316 522 304 522 M310 528 L310 528 310 516 M304 522 Q 275.62 522, 247.23 371.5 T 190.46 221 M 178.46 221 m -1, 0 a 1,1 0 1,0 2,0 a 1,1 0 1,0 -2,0 M 178.46 221 m -0.5, 0 a 0.5,0.5 0 1,0 1,0 a 0.5,0.5 0 1,0 -1,0  M178.46 221 L178.46 221 190.46 221 M184.46 227 L184.46 227 184.46 215" id="h1607168654" class="r"></path><path d="M 351.85 78 m -1, 0 a 1,1 0 1,0 2,0 a 1,1 0 1,0 -2,0 M 351.85 78 m -0.5, 0 a 0.5,0.5 0 1,0 1,0 a 0.5,0.5 0 1,0 -1,0  M351.85 78 L351.85 78 363.85 78 M357.85 84 L357.85 84 357.85 72 M363.85 78 Q 421.39 78, 478.93 208.5 T 594 339 M 606 339 m -1, 0 a 1,1 0 1,0 2,0 a 1,1 0 1,0 -2,0 M 606 339 m -0.5, 0 a 0.5,0.5 0 1,0 1,0 a 0.5,0.5 0 1,0 -1,0  M606 339 L606 339 594 339 M600 345 L600 345 600 333" id="h3177548053" class="r"></path></g><g class="hrs"></g><g class="ts"><svg width="158.75" height="100" x="43" y="305" id="h311790747" class="t"><rect height="40" width="158.75" class="th"></rect><text x="13" y="25" class="tht">titles</text><rect height="60" width="158.75" class="t-bg" y="40"></rect><text x="13" y="61" class="tf pk">title_id<tspan x="145.75" class="ty">VARCHAR</tspan></text><path d="M7,14A2,2 0 0,1 5,12A2,2 0 0,1 7,10A2,2 0 0,1 9,12A2,2 0 0,1 7,14M12.65,10C11.83,7.67 9.61,6 7, 6A6, 6 0 0, 0 1, 12A6, 6 0 0, 0 7, 18C9.61, 18 11.83, 16.33 12.65, 14H17V18H21V14H23V10H12.65Z" class="i pk" transform="translate(67.77083206176758, 48) scale(0.65)"></path><text x="13" y="86" class="tf">title<tspan x="145.75" class="ty">VARCHAR</tspan></text></svg><svg width="168.83" height="225" x="606" y="282" id="h1639608377" class="t"><rect height="40" width="168.83" class="th"></rect><text x="13" y="25" class="tht">employees</text><rect height="185" width="168.83" class="t-bg" y="40"></rect><text x="13" y="61" class="tf pk">emp_no<tspan x="155.83" class="ty">INT</tspan></text><path d="M7,14A2,2 0 0,1 5,12A2,2 0 0,1 7,10A2,2 0 0,1 9,12A2,2 0 0,1 7,14M12.65,10C11.83,7.67 9.61,6 7, 6A6, 6 0 0, 0 1, 12A6, 6 0 0, 0 7, 18C9.61, 18 11.83, 16.33 12.65, 14H17V18H21V14H23V10H12.65Z" class="i pk" transform="translate(116.4341660308838, 48) scale(0.65)"></path><text x="13" y="86" class="tf fk">emp_title_id<tspan x="155.83" class="ty">VARCHAR</tspan></text><text x="13" y="111" class="tf">birth_date<tspan x="155.83" class="ty">DATE</tspan></text><text x="13" y="136" class="tf">first_name<tspan x="155.83" class="ty">VARCHAR</tspan></text><text x="13" y="161" class="tf">last_name<tspan x="155.83" class="ty">VARCHAR</tspan></text><text x="13" y="186" class="tf">sex<tspan x="155.83" class="ty">VARCHAR</tspan></text><text x="13" y="211" class="tf">hire_date<tspan x="155.83" class="ty">DATE</tspan></text></svg><svg width="167.46" height="100" x="629" y="25" id="h1676682957" class="t"><rect height="40" width="167.46" class="th"></rect><text x="13" y="25" class="tht">dept_manager</text><rect height="60" width="167.46" class="t-bg" y="40"></rect><text x="13" y="61" class="tf pk">emp_no<tspan x="154.46" class="ty">INT</tspan></text><path d="M7,14A2,2 0 0,1 5,12A2,2 0 0,1 7,10A2,2 0 0,1 9,12A2,2 0 0,1 7,14M12.65,10C11.83,7.67 9.61,6 7, 6A6, 6 0 0, 0 1, 12A6, 6 0 0, 0 7, 18C9.61, 18 11.83, 16.33 12.65, 14H17V18H21V14H23V10H12.65Z" class="i pk" transform="translate(115.0641660308838, 48) scale(0.65)"></path><text x="13" y="86" class="tf pk">dept_no<tspan x="154.46" class="ty">VARCHAR</tspan></text><path d="M7,14A2,2 0 0,1 5,12A2,2 0 0,1 7,10A2,2 0 0,1 9,12A2,2 0 0,1 7,14M12.65,10C11.83,7.67 9.61,6 7, 6A6, 6 0 0, 0 1, 12A6, 6 0 0, 0 7, 18C9.61, 18 11.83, 16.33 12.65, 14H17V18H21V14H23V10H12.65Z" class="i pk" transform="translate(76.48083206176759, 73) scale(0.65)"></path></svg><svg width="167.46" height="100" x="316" y="440" id="h1090417462" class="t"><rect height="40" width="167.46" class="th"></rect><text x="13" y="25" class="tht">dept_emp</text><rect height="60" width="167.46" class="t-bg" y="40"></rect><text x="13" y="61" class="tf pk">emp_no<tspan x="154.46" class="ty">INT</tspan></text><path d="M7,14A2,2 0 0,1 5,12A2,2 0 0,1 7,10A2,2 0 0,1 9,12A2,2 0 0,1 7,14M12.65,10C11.83,7.67 9.61,6 7, 6A6, 6 0 0, 0 1, 12A6, 6 0 0, 0 7, 18C9.61, 18 11.83, 16.33 12.65, 14H17V18H21V14H23V10H12.65Z" class="i pk" transform="translate(115.0641660308838, 48) scale(0.65)"></path><text x="13" y="86" class="tf pk">dept_no<tspan x="154.46" class="ty">VARCHAR</tspan></text><path d="M7,14A2,2 0 0,1 5,12A2,2 0 0,1 7,10A2,2 0 0,1 9,12A2,2 0 0,1 7,14M12.65,10C11.83,7.67 9.61,6 7, 6A6, 6 0 0, 0 1, 12A6, 6 0 0, 0 7, 18C9.61, 18 11.83, 16.33 12.65, 14H17V18H21V14H23V10H12.65Z" class="i pk" transform="translate(76.48083206176759, 73) scale(0.65)"></path></svg><svg width="167.46" height="100" x="11" y="164" id="h475896179" class="t"><rect height="40" width="167.46" class="th"></rect><text x="13" y="25" class="tht">departments</text><rect height="60" width="167.46" class="t-bg" y="40"></rect><text x="13" y="61" class="tf pk">dept_no<tspan x="154.46" class="ty">VARCHAR</tspan></text><path d="M7,14A2,2 0 0,1 5,12A2,2 0 0,1 7,10A2,2 0 0,1 9,12A2,2 0 0,1 7,14M12.65,10C11.83,7.67 9.61,6 7, 6A6, 6 0 0, 0 1, 12A6, 6 0 0, 0 7, 18C9.61, 18 11.83, 16.33 12.65, 14H17V18H21V14H23V10H12.65Z" class="i pk" transform="translate(76.48083206176759, 48) scale(0.65)"></path><text x="13" y="86" class="tf">dept_name<tspan x="154.46" class="ty">VARCHAR</tspan></text></svg><svg width="128.85" height="100" x="223" y="21" id="h2472833127" class="t"><rect height="40" width="128.85" class="th"></rect><text x="13" y="25" class="tht">salaries</text><rect height="60" width="128.85" class="t-bg" y="40"></rect><text x="13" y="61" class="tf pk">emp_no<tspan x="115.85" class="ty">INT</tspan></text><path d="M7,14A2,2 0 0,1 5,12A2,2 0 0,1 7,10A2,2 0 0,1 9,12A2,2 0 0,1 7,14M12.65,10C11.83,7.67 9.61,6 7, 6A6, 6 0 0, 0 1, 12A6, 6 0 0, 0 7, 18C9.61, 18 11.83, 16.33 12.65, 14H17V18H21V14H23V10H12.65Z" class="i pk" transform="translate(76.45416603088378, 48) scale(0.65)"></path><text x="13" y="86" class="tf">salary<tspan x="115.85" class="ty">INT</tspan></text></svg></g></g><text class="qdbd-link" x="10" y="20">www.quickdatabasediagrams.com</text></svg>